<svg width="20" height="20" viewBox="0 0 20 20" fill="none" xmlns="http://www.w3.org/2000/svg">
<path d="M16.3305 15.3859L15.9879 15.7461L16.346 16.0908L19.4355 19.0642C19.4356 19.0643 19.4357 19.0644 19.4358 19.0645C19.5218 19.1476 19.5208 19.2721 19.4365 19.3534L19.4341 19.3558C19.3904 19.3985 19.3285 19.4237 19.2595 19.4237C19.1927 19.4237 19.1293 19.3991 19.0825 19.3543C19.0824 19.3542 19.0824 19.3542 19.0823 19.3541L15.9559 16.3473L15.645 16.0483L15.3037 16.3119C13.7441 17.5165 11.7653 18.2389 9.61181 18.2389C4.57087 18.2389 0.5 14.2872 0.5 9.46879C0.5 4.65045 4.5708 0.699646 9.61181 0.699646C14.6528 0.699646 18.7226 4.65039 18.7226 9.46879C18.7226 11.7443 17.8179 13.8224 16.3305 15.3859ZM9.61181 1.12743C4.86929 1.12743 0.98041 4.8514 0.98041 9.46879C0.98041 14.0861 4.86921 17.8111 9.61181 17.8111C14.3535 17.8111 18.2422 14.0861 18.2422 9.46879C18.2422 4.85144 14.3534 1.12743 9.61181 1.12743Z" fill="white" stroke="black"/>
</svg>
